HIERARCHY
ROOT Hips
{
  OFFSET 0.0 0.0 0.0
  CHANNELS 6 XPOSITION YPOSITION ZPOSITION ZROTATION XROTATION YROTATION 
  JOINT LeftUpLeg
  {
    OFFSET 0.089458038 -0.086670642 0.001016508
    CHANNELS 3 ZROTATION XROTATION YROTATION 
    JOINT LeftLeg
    {
      OFFSET 0.024072596 -0.332074774 -0.032704786
      CHANNELS 3 ZROTATION XROTATION YROTATION 
      JOINT LeftFoot
      {
        OFFSET 0.018499328 -0.43513933800000004 -0.043332908
        CHANNELS 3 ZROTATION XROTATION YROTATION 
        End Site
        {
          OFFSET -0.00039979600000000006 -0.04415028000000001 0.11987149000000001
        }
      }
    }
  }
  JOINT Spine
  {
    OFFSET 0.0 0.153594308 0.01060958
    CHANNELS 3 ZROTATION XROTATION YROTATION 
    JOINT Spine1
    {
      OFFSET -5.08e-07 0.264157968 -0.04310913400000001
      CHANNELS 3 ZROTATION XROTATION YROTATION 
      End Site
      {
        OFFSET -0.0029004260000000002 0.21508415200000003 0.025250648
      }
      JOINT RightArm
      {
        OFFSET -0.11156512199999999 -0.05365633 0.0010215879999999995
        CHANNELS 3 ZROTATION XROTATION YROTATION 
        JOINT RightForeArm
        {
          OFFSET -0.22852507 -0.0024996140000000003 0.003355594
          CHANNELS 3 ZROTATION XROTATION YROTATION 
          End Site
          {
            OFFSET -0.24944755799999999 -0.004210304 0.003662934
          }
        }
      }
      JOINT LeftArm
      {
        OFFSET 0.11280794400000002 -0.053656076000000004 0.0010208260000000003
        CHANNELS 3 ZROTATION XROTATION YROTATION 
        JOINT LeftForeArm
        {
          OFFSET 0.22728250200000003 -0.002494534 0.003357118
          CHANNELS 3 ZROTATION XROTATION YROTATION 
          End Site
          {
            OFFSET 0.249444002 -0.004214114 0.0036845240000000002
          }
        }
      }
    }
  }
  JOINT RightUpLeg
  {
    OFFSET -0.089458038 -0.086670642 0.001016508
    CHANNELS 3 ZROTATION XROTATION YROTATION 
    JOINT RightLeg
    {
      OFFSET -0.021981922000000004 -0.331726032 -0.03267837
      CHANNELS 3 ZROTATION XROTATION YROTATION 
      JOINT RightFoot
      {
        OFFSET -0.020501102000000004 -0.43533822 -0.043359578
        CHANNELS 3 ZROTATION XROTATION YROTATION 
        End Site
        {
          OFFSET 7.594600000000001e-05 -0.04415078800000001 0.11987225200000001
        }
      }
    }
  }
}
MOTION
Frames: 8
Frame Time: 0.033333
-0.044721779999999996 0.9464423946566 0.38031928000000004 -0.38952643541776766 2.5287424305177018 1.0906621090273843 -1.9307416528799257 -11.559979910804337 1.6944815675077765 0.5003848345978645 13.353234978333784 0.7707383428206612 1.5297872437636688 2.811996992143889 0.2183629353538795 1.2928178859348962 -4.489695077313652 -0.08536194333867397 -2.5138011782648872 0.13659986137756755 0.08430024245902705 -17.593754509441617 -28.65950449322477 4.319745029724925 4.694581542506993 32.95735663222569 0.7832500220805082 -8.111975766829548 -50.27732983897651 -29.72238779601089 8.080671302316087 58.003954016796754 -2.2944400481164076 3.213256518616975 -12.620194317172274 -1.7508126989138104 -0.7332755022750818 13.283095765746923 4.194509669311333 -3.1624885762899164 3.9779162598805895 0.040196840539341944 
-0.04446524 0.9464423946566 0.38054788 -0.4213641882950185 2.5010462268767117 1.092140418095869 -1.9063160426343138 -11.53878071116791 1.6956802657071137 0.510512297589701 13.393020830249108 0.7407463418449006 1.400723455598579 2.7498928567853134 0.24338026409719657 1.3286205636253394 -4.441794960664352 -0.08495516021687476 -2.5690164275152703 0.1397998450243582 0.0886002667582666 -17.621845369950584 -28.52889590836849 4.2618506387726045 4.779013779705752 32.830687358973215 0.778679451587006 -8.059587362121903 -50.29518736856151 -29.64748794157253 8.06109598015483 58.07014538004335 -2.3015323457958194 3.205891226814174 -12.564882591499865 -1.786704489228581 -0.7077453757354849 13.260632981114043 4.255979237407332 -3.056906658326213 3.9675172968692447 0.01744180018270666 
-0.04425188000000001 0.9464423946566 0.38084760000000006 -0.43123189065498285 2.4724279476977697 1.1202430179924747 -1.895107702206323 -11.47790921151111 1.7291914149310177 0.4946195146081391 13.374074739265138 0.6864160289788573 1.4023982393274073 2.7401929209468374 0.24267750166462573 1.2566691097526037 -4.398797639178652 -0.060377851736601186 -2.462421720563701 -0.045399930572690886 0.09880003370576994 -17.60036784010548 -28.666338097489366 4.178080503036513 4.6631831628924445 33.015843542088504 0.785319569399022 -8.039768714471466 -50.24647787449556 -29.523963970432845 7.978711092159783 57.94563786166319 -2.2886335335482504 3.211916947766006 -12.512337946214956 -1.8119486549575368 -0.6865859299344613 13.238742224824152 4.252615796127924 -3.4752487013569127 4.042910205588315 0.10706643690144314 
-0.04384294 0.9464423946566 0.3813937 -0.5394652026771205 2.6112088538959664 1.1119546901563702 -1.796874214015907 -11.640308058085564 1.7347889683992548 0.48386618217274735 13.463900264587268 0.7113511286478698 1.4129310313578016 2.68119417378309 0.23876140203182836 1.404587528399808 -4.699499705596226 -0.003812818451382402 -2.8108706512610717 0.3783978694648484 0.1924041877634378 -17.599314283426004 -28.40449255037317 3.821918581218906 4.7559934808818705 32.797998073605534 0.777560261058476 -8.079743250362611 -50.09405878807215 -29.54453991530751 7.831637482535545 57.71158776937436 -2.264633529465295 3.2511533963399675 -12.565861016098468 -1.8198048666069324 -0.6569683620634349 13.153890784765084 4.207691080635811 -3.1075360758791675 3.9982168627543366 0.027767580451838098 
-0.04361942 0.9464423946566 0.38179248000000005 -0.5750315451501108 2.6244982675866955 1.1208758777077588 -1.788549387356425 -11.624750594703569 1.7287705045234156 0.5032628521985257 13.458991066121323 0.7146269514068314 1.4311437307796406 2.6562953594940435 0.23425168959104808 1.4309059548191596 -4.7824997375033975 0.01806288882734829 -2.8980774393667366 0.5724955172556262 0.22791137973099865 -17.56678721505111 -28.26520279508181 3.6464860261607748 4.831476889607443 32.546763225364955 0.7686144741539046 -8.078240608745208 -50.00498970620059 -29.531719650235395 7.720985002886753 57.4938071876885 -2.2425374406134804 3.2367677372874515 -12.525774635859664 -1.8931762527750902 -0.5989773346065292 13.100927790393513 4.286262161753053 -3.2309006047904103 4.025815522756242 0.054133574736488506 
-0.0436372 0.9464449346565998 0.38208712 -0.5341054785302175 2.6033547766806864 1.1734112382042639 -1.8285748295012287 -11.591775295164393 1.7767497019566991 0.494323148431184 13.459622004845903 0.585892559786636 1.5531627124243912 2.6661997741207966 0.20932659508195262 1.2569094470340234 -4.765699179692459 0.03381691358107443 -2.5756756485126213 0.5269962654604391 0.214809089211144 -17.55598697842603 -28.341974121352752 3.5707688968995406 4.7614870874086765 32.55295820694216 0.769023485091312 -8.278205495754733 -50.046684595988935 -29.656940923383825 7.803865933370273 57.533852586792285 -2.246492547029741 3.2224209249358395 -12.502102053970045 -1.8766134709246325 -0.597267386075646 13.132673655882085 4.278703276775965 -3.5084726624705587 4.061109671518637 0.11398621227335282 
-0.0434467 0.9464474746566 0.38221158000000005 -0.5564298984715512 2.5848421892656015 1.1912122052851981 -1.7862722663201662 -11.503628288830793 1.8072149069758947 0.45513323052094334 13.363165219613336 0.5688009185231782 1.5552247892235005 2.658100023538808 0.20862447297961648 1.2124580423070517 -4.7397999561334165 0.0007024020383729992 -2.5990346820306534 0.2922984791392246 0.18320238882691 -17.46196600940622 -28.247819963644126 3.5818062691548698 4.813409331705468 32.406597498312536 0.7638650914423657 -8.090296746403927 -50.05907797423792 -29.439375492656826 7.836865138571543 57.73635403530483 -2.2671218527572954 3.2198860709801185 -12.496495322435111 -1.9066870072836102 -0.582137876733833 13.174166201316266 4.278915012640235 -3.5313204990178972 4.05430893753942 0.11909804857815201 
-0.04339335999999999 0.9464576346565998 0.38270180000000004 -0.574202744383012 2.6608835390689998 1.2341308728737368 -1.7439334177591381 -11.541594749105956 1.857471225445437 0.4349020501168069 13.342768567204386 0.4692672397912269 1.4678493808227007 2.608497482238883 0.22523338528739828 1.1329637117130946 -4.990599806701231 0.007628921930270888 -2.452308558280439 0.7759959342951315 0.1852169744669464 -17.546414468304256 -27.97898713300701 3.4663026476480767 5.036923857199549 32.13146723326067 0.7538765267506039 -8.08386185443213 -50.09501501455595 -29.47723864632079 7.879228533124901 57.731258714183994 -2.2666149246548333 3.1970979985880175 -12.543352981462338 -1.9092871749232694 -0.5543902865915091 13.187424452268909 4.157626220906441 -3.2953863417352047 3.991014855161381 0.06876676478040489 
